<svg xmlns="http://www.w3.org/2000/svg" version="1.1" xmlns:xlink="http://www.w3.org/1999/xlink" viewBox="0 0 40 40"
     width="25" height="25" color="#fff">
    <g transform="matrix(1.6666666666666667,0,0,1.6666666666666667,0,0)">
        <path
            d="M21.5,3h-2.75c-0.138,0-0.25-0.112-0.25-0.25V1c0-0.552-0.448-1-1-1s-1,0.448-1,1v4.75c0,0.414-0.336,0.75-0.75,0.75 S15,6.164,15,5.75V3.5C15,3.224,14.776,3,14.5,3H8.25C8.112,3,8.001,2.889,8,2.751V1c0-0.552-0.448-1-1-1S6,0.448,6,1v4.75 C6,6.164,5.664,6.5,5.25,6.5S4.5,6.164,4.5,5.75V3.5C4.5,3.224,4.276,3,4,3H2.5c-1.105,0-2,0.895-2,2v17c0,1.105,0.895,2,2,2h19 c1.105,0,2-0.895,2-2V5C23.5,3.895,22.605,3,21.5,3z M21.5,21.5c0,0.276-0.224,0.5-0.5,0.5H3c-0.276,0-0.5-0.224-0.5-0.5v-12 C2.5,9.224,2.724,9,3,9h18c0.276,0,0.5,0.224,0.5,0.5V21.5z M18.185,13.111l-6-2.383c-0.119-0.046-0.251-0.046-0.37,0l-6,2.383 c-0.193,0.077-0.319,0.266-0.315,0.474c0,0.034,0,3.38,0,3.38c0,0.414,0.336,0.75,0.75,0.75S7,17.379,7,16.965v-2.506l4.834,1.706 c0.107,0.038,0.225,0.038,0.332,0l6-2.118c0.26-0.092,0.397-0.377,0.305-0.638C18.423,13.273,18.319,13.164,18.185,13.111z M15.263,15.829L12,16.981l-3.263-1.152c-0.26-0.092-0.546,0.045-0.638,0.306c-0.019,0.053-0.028,0.11-0.028,0.166v2.145 c0,0.212,0.134,0.402,0.334,0.472l2.574,0.908c0.661,0.232,1.381,0.232,2.042,0l2.574-0.908c0.2-0.07,0.334-0.26,0.334-0.472V16.3 c0-0.276-0.223-0.5-0.5-0.5c-0.057,0-0.113,0.01-0.166,0.028L15.263,15.829z"
            stroke="none" fill="currentColor" stroke-width="0" stroke-linecap="round" stroke-linejoin="round"></path>
    </g>
</svg>
